<?xml version="1.0" encoding="UTF-8"?>
<svg id="Calque_1" data-name="Calque 1" xmlns="http://www.w3.org/2000/svg" viewBox="0 0 297.67 462.47">
  <path class="cls-1" d="m2.98,431.48c18.48-56.06,36.96-112.12,55.43-168.18,18.38-55.77,36.76-111.54,55.15-167.31,10.34-31.37,20.68-62.74,31.02-94.11l-2.74.36c7.2,13.85,10.38,29.21,13.49,44.38s6.55,31.01,10.14,46.44c7.15,30.77,15.11,61.35,23.89,91.7,8.81,30.49,18.43,60.74,28.85,90.71,10.42,29.98,21.64,59.67,33.64,89.05,11.89,29.1,24.53,57.89,37.93,86.33,1.71,3.62,3.43,7.23,5.16,10.84.83,1.74,3.42.22,2.59-1.51-13.78-28.76-26.81-57.88-39.03-87.33-12.11-29.18-23.44-58.68-33.98-88.46-10.59-29.91-20.39-60.11-29.37-90.55s-17.16-61.11-24.51-91.98c-3.68-15.44-7.15-30.92-10.41-46.45s-5.66-30.22-11.2-44.53c-1.34-3.47-2.87-6.86-4.58-10.16-.63-1.21-2.36-.8-2.74.36-18.48,56.06-36.96,112.12-55.43,168.18s-36.76,111.54-55.15,167.31c-10.34,31.37-20.68,62.74-31.02,94.11-.61,1.84,2.29,2.63,2.89.8h0Z"/>
  <path class="cls-1" d="m27.36,275.74c28.44,0,56.88,0,85.33,0h85.33c15.97,0,31.93,0,47.9,0,1.93,0,1.93-3,0-3-28.44,0-56.88,0-85.33,0h-85.33c-15.97,0-31.93,0-47.9,0-1.93,0-1.93,3,0,3h0Z"/>
</svg>